<svg width="24" height="24" viewBox="0 0 24 24" fill="none" xmlns="http://www.w3.org/2000/svg">
<path d="M12 -0.0255127C5.36926 -0.0255127 -0.0262451 5.36849 -0.0262451 12C-0.0262451 18.6315 5.36926 24.0255 12 24.0255C18.6308 24.0255 24.0263 18.6315 24.0263 12C24.0263 5.36849 18.6308 -0.0255127 12 -0.0255127ZM12 23.2245C5.811 23.2245 0.776255 18.189 0.776255 12C0.776255 5.81099 5.811 0.775487 12 0.775487C18.189 0.775487 23.2238 5.81099 23.2238 12C23.2238 18.189 18.189 23.2245 12 23.2245Z" fill="#FAFCFF"/>
<path d="M14.625 5.25003H12.624C10.0755 5.22453 9.75001 6.80178 9.75001 8.50878V9.75003H8.62501C8.57416 9.74324 8.52243 9.74826 8.47384 9.7647C8.42525 9.78115 8.3811 9.80857 8.34482 9.84484C8.30855 9.88112 8.28113 9.92527 8.26468 9.97386C8.24824 10.0225 8.24322 10.0742 8.25001 10.125V12.375C8.24322 12.4259 8.24824 12.4776 8.26468 12.5262C8.28113 12.5748 8.30855 12.6189 8.34482 12.6552C8.3811 12.6915 8.42525 12.7189 8.47384 12.7354C8.52243 12.7518 8.57416 12.7568 8.62501 12.75H9.75001V18.375C9.74376 18.426 9.74924 18.4777 9.76602 18.5262C9.7828 18.5747 9.81045 18.6187 9.84685 18.6549C9.88325 18.691 9.92743 18.7184 9.97603 18.7349C10.0246 18.7514 10.0764 18.7566 10.1273 18.75H12.4185C12.6398 18.7755 12.819 18.5963 12.7485 18.375L12.75 12.75H14.625C14.6759 12.7568 14.7276 12.7518 14.7762 12.7354C14.8248 12.7189 14.8689 12.6915 14.9052 12.6552C14.9415 12.6189 14.9689 12.5748 14.9853 12.5262C15.0018 12.4776 15.0068 12.4259 15 12.375V10.125C15.0068 10.0742 15.0018 10.0225 14.9853 9.97386C14.9689 9.92527 14.9415 9.88112 14.9052 9.84484C14.8689 9.80857 14.8248 9.78115 14.7762 9.7647C14.7276 9.74826 14.6759 9.74324 14.625 9.75003H12.7478L12.75 8.62503C12.8228 8.14578 12.8228 8.22378 13.2675 8.25003H14.6093C14.7135 8.22678 14.8245 8.23953 14.9025 8.16378C14.9805 8.08803 15.0255 7.98453 14.9993 7.87503V5.62503C15.0062 5.57422 15.0013 5.5225 14.9849 5.4739C14.9686 5.4253 14.9412 5.38113 14.905 5.34484C14.8688 5.30855 14.8247 5.28111 14.7761 5.26466C14.7275 5.24822 14.6758 5.24321 14.625 5.25003ZM14.2238 7.45803L13.2833 7.42203C12.1185 7.42203 12.021 8.05428 12.021 8.70153L12.018 10.1235C12.0179 10.1762 12.0282 10.2283 12.0483 10.277C12.0684 10.3257 12.0978 10.3699 12.135 10.4072C12.1722 10.4445 12.2164 10.474 12.2651 10.4942C12.3137 10.5144 12.3659 10.5248 12.4185 10.5248H14.25V11.9738H12.42C12.3137 11.9738 12.2118 12.016 12.1365 12.091C12.0613 12.1661 12.019 12.268 12.0188 12.3743L12.018 18H10.5V12.375C10.5 12.1538 10.3493 11.9745 10.1273 11.9745H9.00001V10.5255H10.1273C10.1799 10.5256 10.232 10.5153 10.2807 10.4952C10.3293 10.4752 10.3735 10.4457 10.4108 10.4085C10.4858 10.3328 10.4993 10.2308 10.4993 10.1243V8.50803C10.4993 6.82653 10.839 6.02553 12.6233 6.02553H14.223V7.45803H14.2238Z" fill="#FAFCFF"/>
</svg>
