<svg width="24" height="24" viewBox="0 0 24 24" fill="none" xmlns="http://www.w3.org/2000/svg">
<path d="M12 20C14.1217 20 16.1566 19.1571 17.6569 17.6569C19.1571 16.1566 20 14.1217 20 12C20 9.87827 19.1571 7.84344 17.6569 6.34315C16.1566 4.84285 14.1217 4 12 4C9.87827 4 7.84344 4.84285 6.34315 6.34315C4.84285 7.84344 4 9.87827 4 12C4 14.1217 4.84285 16.1566 6.34315 17.6569C7.84344 19.1571 9.87827 20 12 20ZM12 22C6.477 22 2 17.523 2 12C2 6.477 6.477 2 12 2C17.523 2 22 6.477 22 12C22 17.523 17.523 22 12 22Z" fill="#FAFCFF"/>
<path d="M16.03 9.88H13.525V9.258H16.031V9.881L16.03 9.88ZM11.857 12.433C12.019 12.683 12.099 12.987 12.099 13.344C12.099 13.714 12.009 14.044 11.823 14.337C11.6991 14.5428 11.5335 14.7204 11.3368 14.8584C11.1401 14.9963 10.9167 15.0916 10.681 15.138C10.3916 15.1959 10.0971 15.224 9.802 15.222H7V9H10.005C10.762 9.012 11.299 9.232 11.616 9.663C11.806 9.927 11.901 10.244 11.901 10.613C11.901 10.993 11.806 11.298 11.613 11.529C11.507 11.659 11.349 11.777 11.14 11.883C11.456 11.999 11.696 12.181 11.857 12.433ZM8.435 11.453H9.752C10.022 11.453 10.241 11.402 10.409 11.299C10.578 11.196 10.662 11.014 10.662 10.752C10.662 10.462 10.551 10.27 10.328 10.178C10.0897 10.1066 9.84164 10.0736 9.593 10.08H8.435V11.453ZM10.789 13.255C10.789 12.932 10.656 12.709 10.393 12.589C10.245 12.521 10.037 12.486 9.771 12.483H8.435V14.141H9.75C10.02 14.141 10.23 14.106 10.38 14.032C10.652 13.897 10.789 13.639 10.789 13.255ZM16.96 12.243C16.99 12.447 17.004 12.742 16.999 13.128H13.754C13.772 13.576 13.926 13.889 14.22 14.068C14.396 14.181 14.61 14.236 14.862 14.236C15.127 14.236 15.342 14.169 15.509 14.031C15.6084 13.9461 15.6897 13.842 15.748 13.725H16.938C16.906 13.99 16.763 14.258 16.506 14.531C16.106 14.964 15.548 15.181 14.829 15.181C14.2575 15.1884 13.7017 14.9944 13.259 14.633C12.807 14.267 12.579 13.673 12.579 12.848C12.579 12.075 12.784 11.483 13.193 11.071C13.603 10.658 14.134 10.453 14.788 10.453C15.175 10.453 15.524 10.522 15.836 10.661C16.146 10.801 16.403 11.02 16.605 11.321C16.788 11.587 16.905 11.893 16.96 12.243ZM15.79 12.359C15.768 12.049 15.664 11.815 15.478 11.655C15.286 11.4915 15.0401 11.4052 14.788 11.413C14.488 11.413 14.257 11.5 14.092 11.669C13.927 11.839 13.824 12.069 13.782 12.359H15.79Z" fill="#FAFCFF"/>
</svg>
