<svg width="17" height="19" viewBox="0 0 17 19" fill="none" xmlns="http://www.w3.org/2000/svg">
<path d="M13.55 17.28C12.57 18.23 11.5 18.08 10.47 17.63C9.38001 17.17 8.38001 17.15 7.23001 17.63C5.79001 18.25 5.03001 18.07 4.17001 17.28C-0.709989 12.25 0.0100117 4.59 5.55001 4.31C6.90001 4.38 7.84001 5.05 8.63001 5.11C9.81001 4.87 10.94 4.18 12.2 4.27C13.71 4.39 14.85 4.99 15.6 6.07C12.48 7.94 13.22 12.05 16.08 13.2C15.51 14.7 14.77 16.19 13.54 17.29L13.55 17.28V17.28ZM8.53001 4.25C8.38001 2.02 10.19 0.18 12.27 0C12.56 2.58 9.93001 4.5 8.53001 4.25Z" fill="white"/>
</svg>
