<svg width="40" height="40" viewBox="0 0 40 40" fill="none" xmlns="http://www.w3.org/2000/svg">
<path d="M26.6666 37.9166H4.99992C3.39992 37.9166 2.08325 36.6 2.08325 35V13.3333C2.08325 5.96665 5.96659 2.08331 13.3333 2.08331H26.6666C34.0333 2.08331 37.9166 5.96665 37.9166 13.3333V26.6666C37.9166 34.0333 34.0333 37.9166 26.6666 37.9166ZM13.3333 4.58331C7.36659 4.58331 4.58325 7.36665 4.58325 13.3333V35C4.58325 35.2333 4.76659 35.4166 4.99992 35.4166H26.6666C32.6333 35.4166 35.4166 32.6333 35.4166 26.6666V13.3333C35.4166 7.36665 32.6333 4.58331 26.6666 4.58331H13.3333Z" fill="black"/>
<path d="M28.3334 17.0833H11.6667C10.9834 17.0833 10.4167 16.5166 10.4167 15.8333C10.4167 15.15 10.9834 14.5833 11.6667 14.5833H28.3334C29.0167 14.5833 29.5834 15.15 29.5834 15.8333C29.5834 16.5166 29.0167 17.0833 28.3334 17.0833Z" fill="black"/>
<path d="M23.3334 25.4167H11.6667C10.9834 25.4167 10.4167 24.85 10.4167 24.1667C10.4167 23.4834 10.9834 22.9167 11.6667 22.9167H23.3334C24.0167 22.9167 24.5834 23.4834 24.5834 24.1667C24.5834 24.85 24.0167 25.4167 23.3334 25.4167Z" fill="black"/>
</svg>
