<svg width="30" height="30" viewBox="0 0 30 30" fill="none" xmlns="http://www.w3.org/2000/svg">
<path d="M11.25 22.1875C11.125 22.1875 11.0125 22.1625 10.8875 22.1125C10.5375 21.975 10.3125 21.625 10.3125 21.25V13.75C10.3125 13.2375 10.7375 12.8125 11.25 12.8125C11.7625 12.8125 12.1875 13.2375 12.1875 13.75V18.9875L13.0875 18.0875C13.45 17.725 14.05 17.725 14.4125 18.0875C14.775 18.45 14.775 19.05 14.4125 19.4125L11.9125 21.9125C11.7375 22.0875 11.4875 22.1875 11.25 22.1875Z" fill="white"/>
<path d="M11.2498 22.1875C11.0123 22.1875 10.7748 22.1 10.5873 21.9125L8.0873 19.4125C7.7248 19.05 7.7248 18.45 8.0873 18.0875C8.4498 17.725 9.04981 17.725 9.4123 18.0875L11.9123 20.5875C12.2748 20.95 12.2748 21.55 11.9123 21.9125C11.7248 22.1 11.4873 22.1875 11.2498 22.1875Z" fill="white"/>
<path d="M18.75 28.4375H11.25C4.4625 28.4375 1.5625 25.5375 1.5625 18.75V11.25C1.5625 4.4625 4.4625 1.5625 11.25 1.5625H17.5C18.0125 1.5625 18.4375 1.9875 18.4375 2.5C18.4375 3.0125 18.0125 3.4375 17.5 3.4375H11.25C5.4875 3.4375 3.4375 5.4875 3.4375 11.25V18.75C3.4375 24.5125 5.4875 26.5625 11.25 26.5625H18.75C24.5125 26.5625 26.5625 24.5125 26.5625 18.75V12.5C26.5625 11.9875 26.9875 11.5625 27.5 11.5625C28.0125 11.5625 28.4375 11.9875 28.4375 12.5V18.75C28.4375 25.5375 25.5375 28.4375 18.75 28.4375Z" fill="white"/>
<path d="M27.5 13.4376H22.5C18.225 13.4376 16.5625 11.7751 16.5625 7.50011V2.50011C16.5625 2.12511 16.7875 1.77511 17.1375 1.63761C17.4875 1.48761 17.8875 1.57511 18.1625 1.83761L28.1625 11.8376C28.425 12.1001 28.5125 12.5126 28.3625 12.8626C28.2125 13.2126 27.875 13.4376 27.5 13.4376ZM18.4375 4.76261V7.50011C18.4375 10.7251 19.275 11.5626 22.5 11.5626H25.2375L18.4375 4.76261Z" fill="white"/>
</svg>
