<svg width="134" height="95" viewBox="0 0 134 95" fill="none" xmlns="http://www.w3.org/2000/svg">
<g clip-path="url(#clip0_229_1628)">
<rect width="134" height="95" rx="14" fill="#E0E6E9"/>
<path d="M16.5 102C137.3 75.6 130 50 137 38C140.5 43.3333 147.6 54.2 148 55C148.4 55.8 160.167 86 166 101L92 114L16.5 102Z" fill="#FE6D00"/>
<path d="M14.6914 56H11.0469L11.0703 53.668H14.6914C15.7461 53.668 16.6289 53.4375 17.3398 52.9766C18.0586 52.5156 18.5977 51.8555 18.957 50.9961C19.3242 50.1367 19.5078 49.1133 19.5078 47.9258V47C19.5078 46.0781 19.4023 45.2617 19.1914 44.5508C18.9883 43.8398 18.6836 43.2422 18.2773 42.7578C17.8789 42.2734 17.3867 41.9062 16.8008 41.6562C16.2227 41.4062 15.5547 41.2812 14.7969 41.2812H10.9766V38.9375H14.7969C15.9297 38.9375 16.9648 39.1289 17.9023 39.5117C18.8398 39.8867 19.6484 40.4297 20.3281 41.1406C21.0156 41.8516 21.543 42.7031 21.9102 43.6953C22.2773 44.6875 22.4609 45.7969 22.4609 47.0234V47.9258C22.4609 49.1523 22.2773 50.2617 21.9102 51.2539C21.543 52.2461 21.0156 53.0977 20.3281 53.8086C19.6406 54.5117 18.8203 55.0547 17.8672 55.4375C16.9219 55.8125 15.8633 56 14.6914 56ZM12.6758 38.9375V56H9.73438V38.9375H12.6758ZM28.5547 38.9375V56H25.6133V38.9375H28.5547ZM41.1875 51.6055C41.1875 51.2539 41.1328 50.9414 41.0234 50.668C40.9219 50.3945 40.7383 50.1445 40.4727 49.918C40.207 49.6914 39.832 49.4727 39.3477 49.2617C38.8711 49.043 38.2617 48.8203 37.5195 48.5938C36.707 48.3438 35.957 48.0664 35.2695 47.7617C34.5898 47.4492 33.9961 47.0898 33.4883 46.6836C32.9805 46.2695 32.5859 45.7969 32.3047 45.2656C32.0234 44.7266 31.8828 44.1055 31.8828 43.4023C31.8828 42.707 32.0273 42.0742 32.3164 41.5039C32.6133 40.9336 33.0312 40.4414 33.5703 40.0273C34.1172 39.6055 34.7617 39.2812 35.5039 39.0547C36.2461 38.8203 37.0664 38.7031 37.9648 38.7031C39.2305 38.7031 40.3203 38.9375 41.2344 39.4062C42.1562 39.875 42.8633 40.5039 43.3555 41.293C43.8555 42.082 44.1055 42.9531 44.1055 43.9062H41.1875C41.1875 43.3438 41.0664 42.8477 40.8242 42.418C40.5898 41.9805 40.2305 41.6367 39.7461 41.3867C39.2695 41.1367 38.6641 41.0117 37.9297 41.0117C37.2344 41.0117 36.6562 41.1172 36.1953 41.3281C35.7344 41.5391 35.3906 41.8242 35.1641 42.1836C34.9375 42.543 34.8242 42.9492 34.8242 43.4023C34.8242 43.7227 34.8984 44.0156 35.0469 44.2812C35.1953 44.5391 35.4219 44.7812 35.7266 45.0078C36.0312 45.2266 36.4141 45.4336 36.875 45.6289C37.3359 45.8242 37.8789 46.0117 38.5039 46.1914C39.4492 46.4727 40.2734 46.7852 40.9766 47.1289C41.6797 47.4648 42.2656 47.8477 42.7344 48.2773C43.2031 48.707 43.5547 49.1953 43.7891 49.7422C44.0234 50.2812 44.1406 50.8945 44.1406 51.582C44.1406 52.3008 43.9961 52.9492 43.707 53.5273C43.418 54.0977 43.0039 54.5859 42.4648 54.9922C41.9336 55.3906 41.293 55.6992 40.543 55.918C39.8008 56.1289 38.9727 56.2344 38.0586 56.2344C37.2383 56.2344 36.4297 56.125 35.6328 55.9062C34.8438 55.6875 34.125 55.3555 33.4766 54.9102C32.8281 54.457 32.3125 53.8945 31.9297 53.2227C31.5469 52.543 31.3555 51.75 31.3555 50.8438H34.2969C34.2969 51.3984 34.3906 51.8711 34.5781 52.2617C34.7734 52.6523 35.043 52.9727 35.3867 53.2227C35.7305 53.4648 36.1289 53.6445 36.582 53.7617C37.043 53.8789 37.5352 53.9375 38.0586 53.9375C38.7461 53.9375 39.3203 53.8398 39.7812 53.6445C40.25 53.4492 40.6016 53.1758 40.8359 52.8242C41.0703 52.4727 41.1875 52.0664 41.1875 51.6055ZM56.8203 50.4453H59.75C59.6562 51.5625 59.3438 52.5586 58.8125 53.4336C58.2812 54.3008 57.5352 54.9844 56.5742 55.4844C55.6133 55.9844 54.4453 56.2344 53.0703 56.2344C52.0156 56.2344 51.0664 56.0469 50.2227 55.6719C49.3789 55.2891 48.6562 54.75 48.0547 54.0547C47.4531 53.3516 46.9922 52.5039 46.6719 51.5117C46.3594 50.5195 46.2031 49.4102 46.2031 48.1836V46.7656C46.2031 45.5391 46.3633 44.4297 46.6836 43.4375C47.0117 42.4453 47.4805 41.5977 48.0898 40.8945C48.6992 40.1836 49.4297 39.6406 50.2812 39.2656C51.1406 38.8906 52.1055 38.7031 53.1758 38.7031C54.5352 38.7031 55.6836 38.9531 56.6211 39.4531C57.5586 39.9531 58.2852 40.6445 58.8008 41.5273C59.3242 42.4102 59.6445 43.4219 59.7617 44.5625H56.832C56.7539 43.8281 56.582 43.1992 56.3164 42.6758C56.0586 42.1523 55.6758 41.7539 55.168 41.4805C54.6602 41.1992 53.9961 41.0586 53.1758 41.0586C52.5039 41.0586 51.918 41.1836 51.418 41.4336C50.918 41.6836 50.5 42.0508 50.1641 42.5352C49.8281 43.0195 49.5742 43.6172 49.4023 44.3281C49.2383 45.0312 49.1562 45.8359 49.1562 46.7422V48.1836C49.1562 49.043 49.2305 49.8242 49.3789 50.5273C49.5352 51.2227 49.7695 51.8203 50.082 52.3203C50.4023 52.8203 50.8086 53.207 51.3008 53.4805C51.793 53.7539 52.3828 53.8906 53.0703 53.8906C53.9062 53.8906 54.582 53.7578 55.0977 53.4922C55.6211 53.2266 56.0156 52.8398 56.2812 52.332C56.5547 51.8164 56.7344 51.1875 56.8203 50.4453Z" fill="black"/>
<circle cx="70.5" cy="48" r="9.5" fill="#FE6D00"/>
<path d="M87.582 52.8828L92.0703 38.9375H95.3164L89.1992 56H87.0078L87.582 52.8828ZM83.4336 38.9375L87.8867 52.8828L88.4961 56H86.293L80.1992 38.9375H83.4336ZM108.395 53.668V56H99.3359V53.668H108.395ZM100.168 38.9375V56H97.2266V38.9375H100.168ZM107.211 46.0625V48.3594H99.3359V46.0625H107.211ZM108.336 38.9375V41.2812H99.3359V38.9375H108.336ZM110.797 38.9375H116.832C118.129 38.9375 119.234 39.1328 120.148 39.5234C121.062 39.9141 121.762 40.4922 122.246 41.2578C122.738 42.0156 122.984 42.9531 122.984 44.0703C122.984 44.9219 122.828 45.6719 122.516 46.3203C122.203 46.9688 121.762 47.5156 121.191 47.9609C120.621 48.3984 119.941 48.7383 119.152 48.9805L118.262 49.4141H112.836L112.812 47.082H116.879C117.582 47.082 118.168 46.957 118.637 46.707C119.105 46.457 119.457 46.1172 119.691 45.6875C119.934 45.25 120.055 44.7578 120.055 44.2109C120.055 43.6172 119.938 43.1016 119.703 42.6641C119.477 42.2188 119.125 41.8789 118.648 41.6445C118.172 41.4023 117.566 41.2812 116.832 41.2812H113.738V56H110.797V38.9375ZM120.535 56L116.527 48.3359L119.609 48.3242L123.676 55.8477V56H120.535Z" fill="black"/>
</g>
<rect x="0.5" y="0.5" width="133" height="94" rx="13.5" stroke="black"/>
<defs>
<clipPath id="clip0_229_1628">
<rect width="134" height="95" rx="14" fill="white"/>
</clipPath>
</defs>
</svg>
