<svg width="2000" height="487" viewBox="0 0 2000 487" fill="none" xmlns="http://www.w3.org/2000/svg">
<path d="M1479 6C1384.33 24.6667 1156.6 88.4 1003 194C811 326 407 302 291 346C175 390 -31 466 -105 470" stroke="#03045E" stroke-width="11" stroke-linecap="round"/>
<path d="M1469 13C1374.33 31.6667 1146.6 95.4 993 201C801 333 397 309 281 353C165 397 -41 473 -115 477" stroke="#617599" stroke-width="11" stroke-linecap="round"/>
<path d="M1469 17C1374.33 35.6667 1146.6 99.4 993 205C801 337 397 313 281 357C165 401 -41 477 -115 481" stroke="#D8D9FF" stroke-width="11" stroke-linecap="round"/>
</svg>
