<svg width="2040" height="1240" viewBox="0 0 2040 1240" fill="none" xmlns="http://www.w3.org/2000/svg">
<path d="M469 1119C213 1315.8 6.33336 1227.67 -65 1159C-74.3333 919 -97.4 378.6 -115 137C-132.6 -104.6 473.667 -89 779 -51L1319 -31C1552.33 14.3334 1941.8 150.6 1633 333C1247 561 1329 873 1127 843C925 813 789 873 469 1119Z" fill="#101151"/>
<path d="M459 1118C203 1314.8 -3.66664 1226.67 -75 1158C-84.3333 918 -107.4 377.6 -125 136C-142.6 -105.6 463.667 -90 769 -52L1309 -32C1542.33 13.3334 1931.8 149.6 1623 332C1237 560 1319 872 1117 842C915 812 779 872 459 1118Z" fill="#6768AD"/>
<path d="M449 1117C193 1313.8 -13.6666 1225.67 -85 1157C-94.3333 917 -117.4 376.6 -135 135C-152.6 -106.6 453.667 -91 759 -53L1299 -33C1532.33 12.3334 1921.8 148.6 1613 331C1227 559 1309 871 1107 841C905 811 769 871 449 1117Z" fill="#D8D9FF"/>
</svg>
