<svg width="14" height="14" viewBox="0 0 14 14" fill="none" xmlns="http://www.w3.org/2000/svg">
<path d="M10.5 6.27082C10.2608 6.27082 10.0625 6.07249 10.0625 5.83332V4.66666C10.0625 2.82916 9.54333 1.60416 7 1.60416C4.45667 1.60416 3.9375 2.82916 3.9375 4.66666V5.83332C3.9375 6.07249 3.73917 6.27082 3.5 6.27082C3.26083 6.27082 3.0625 6.07249 3.0625 5.83332V4.66666C3.0625 2.97499 3.47083 0.729156 7 0.729156C10.5292 0.729156 10.9375 2.97499 10.9375 4.66666V5.83332C10.9375 6.07249 10.7392 6.27082 10.5 6.27082Z" fill="#292D32"/>
<path d="M7 11.2292C5.95583 11.2292 5.10416 10.3775 5.10416 9.33333C5.10416 8.28917 5.95583 7.4375 7 7.4375C8.04416 7.4375 8.89583 8.28917 8.89583 9.33333C8.89583 10.3775 8.04416 11.2292 7 11.2292ZM7 8.3125C6.44 8.3125 5.97916 8.77333 5.97916 9.33333C5.97916 9.89333 6.44 10.3542 7 10.3542C7.56 10.3542 8.02083 9.89333 8.02083 9.33333C8.02083 8.77333 7.56 8.3125 7 8.3125Z" fill="#292D32"/>
<path d="M9.91666 13.2708H4.08333C1.51083 13.2708 0.729164 12.4892 0.729164 9.91668V8.75001C0.729164 6.17751 1.51083 5.39584 4.08333 5.39584H9.91666C12.4892 5.39584 13.2708 6.17751 13.2708 8.75001V9.91668C13.2708 12.4892 12.4892 13.2708 9.91666 13.2708ZM4.08333 6.27084C1.995 6.27084 1.60416 6.66751 1.60416 8.75001V9.91668C1.60416 11.9992 1.995 12.3958 4.08333 12.3958H9.91666C12.005 12.3958 12.3958 11.9992 12.3958 9.91668V8.75001C12.3958 6.66751 12.005 6.27084 9.91666 6.27084H4.08333Z" fill="#292D32"/>
</svg>
