<svg width="20" height="22" viewBox="0 0 20 22" fill="none" xmlns="http://www.w3.org/2000/svg">
<path d="M9.9999 21.7599C8.9099 21.7599 7.8299 21.4399 6.9799 20.8099L2.6799 17.5999C1.5399 16.7499 0.649902 14.9699 0.649902 13.5599V6.11994C0.649902 4.57994 1.7799 2.93994 3.2299 2.39994L8.2199 0.529941C9.2099 0.159941 10.7699 0.159941 11.7599 0.529941L16.7499 2.39994C18.1999 2.93994 19.3299 4.57994 19.3299 6.11994V13.5499C19.3299 14.9699 18.4399 16.7399 17.2999 17.5899L12.9999 20.7999C12.1699 21.4399 11.0899 21.7599 9.9999 21.7599ZM8.7499 1.93994L3.7599 3.80994C2.9099 4.12994 2.1599 5.20994 2.1599 6.12994V13.5599C2.1599 14.5099 2.8299 15.8399 3.5799 16.3999L7.8799 19.6099C9.0299 20.4699 10.9699 20.4699 12.1299 19.6099L16.4299 16.3999C17.1899 15.8299 17.8499 14.5099 17.8499 13.5599V6.11994C17.8499 5.20994 17.0999 4.12994 16.2499 3.79994L11.2599 1.92994C10.5799 1.68994 9.4199 1.68994 8.7499 1.93994Z" fill="#292D32"/>
</svg>
